<svg width="22" height="22" viewBox="0 0 22 22" fill="none" xmlns="http://www.w3.org/2000/svg">
<path d="M11.0025 13.145C10.7658 13.145 10.5662 13.0611 10.4036 12.8934C10.2406 12.7258 10.169 12.5285 10.1888 12.3016C10.2184 11.8873 10.317 11.5273 10.4847 11.2215C10.6524 10.9157 10.9187 10.6001 11.2837 10.2746C11.6881 9.9195 11.9962 9.61115 12.2081 9.34956C12.4204 9.08837 12.5265 8.79009 12.5265 8.45471C12.5265 8.0503 12.391 7.71493 12.1199 7.4486C11.8485 7.18228 11.4711 7.04912 10.9877 7.04912C10.6721 7.04912 10.4034 7.1156 10.1817 7.24856C9.95953 7.38192 9.77941 7.54724 9.64132 7.74452C9.50323 7.94179 9.33317 8.07496 9.13116 8.144C8.92876 8.21305 8.73385 8.20812 8.54643 8.12921C8.31956 8.03057 8.16431 7.86782 8.08066 7.64095C7.99662 7.41408 8.01378 7.20201 8.13215 7.00473C8.4182 6.56086 8.80289 6.19096 9.28622 5.89505C9.76955 5.59913 10.3367 5.45117 10.9877 5.45117C12.0234 5.45117 12.82 5.73979 13.3776 6.31702C13.9347 6.89386 14.2132 7.5867 14.2132 8.39553C14.2132 8.88872 14.1073 9.3105 13.8954 9.66087C13.6831 10.0108 13.3501 10.4078 12.8964 10.8516C12.561 11.1673 12.3243 11.4237 12.1862 11.621C12.0481 11.8183 11.9544 12.0452 11.9051 12.3016C11.8656 12.5482 11.762 12.7504 11.5944 12.9082C11.4267 13.0661 11.2294 13.145 11.0025 13.145ZM10.9877 16.696C10.6622 16.696 10.3837 16.5802 10.1521 16.3486C9.92007 16.1166 9.80407 15.8378 9.80407 15.5123C9.80407 15.1868 9.92007 14.908 10.1521 14.676C10.3837 14.4444 10.6622 14.3286 10.9877 14.3286C11.3132 14.3286 11.592 14.4444 11.824 14.676C12.0556 14.908 12.1714 15.1868 12.1714 15.5123C12.1714 15.8378 12.0556 16.1166 11.824 16.3486C11.592 16.5802 11.3132 16.696 10.9877 16.696Z" fill="#F28C4C"/>
<path d="M11 21C16.5228 21 21 16.5228 21 11C21 5.47715 16.5228 1 11 1C5.47715 1 1 5.47715 1 11C1 16.5228 5.47715 21 11 21Z" stroke="#F28B4B" stroke-width="2" stroke-miterlimit="10"/>
</svg>
