<svg width="60" height="16" viewBox="0 0 60 16" fill="none" xmlns="http://www.w3.org/2000/svg">
<path d="M59.7071 8.70711C60.0976 8.31658 60.0976 7.68342 59.7071 7.29289L53.3431 0.928932C52.9526 0.538408 52.3195 0.538408 51.9289 0.928932C51.5384 1.31946 51.5384 1.95262 51.9289 2.34315L57.5858 8L51.9289 13.6569C51.5384 14.0474 51.5384 14.6805 51.9289 15.0711C52.3195 15.4616 52.9526 15.4616 53.3431 15.0711L59.7071 8.70711ZM0 9H2.10714L2.10714 7H0L0 9ZM6.32143 9H10.5357V7L6.32143 7V9ZM14.75 9L18.9643 9V7L14.75 7V9ZM23.1786 9L27.3929 9V7L23.1786 7V9ZM31.6071 9L35.8214 9V7L31.6071 7V9ZM40.0357 9H44.25V7L40.0357 7V9ZM48.4643 9H52.6786V7L48.4643 7V9ZM56.8929 9H59V7H56.8929V9ZM59.7071 8.70711C60.0976 8.31658 60.0976 7.68342 59.7071 7.29289L53.3431 0.928932C52.9526 0.538408 52.3195 0.538408 51.9289 0.928932C51.5384 1.31946 51.5384 1.95262 51.9289 2.34315L57.5858 8L51.9289 13.6569C51.5384 14.0474 51.5384 14.6805 51.9289 15.0711C52.3195 15.4616 52.9526 15.4616 53.3431 15.0711L59.7071 8.70711ZM0 9H2.10714L2.10714 7H0L0 9ZM6.32143 9H10.5357V7L6.32143 7V9ZM14.75 9L18.9643 9V7L14.75 7V9ZM23.1786 9L27.3929 9V7L23.1786 7V9ZM31.6071 9L35.8214 9V7L31.6071 7V9ZM40.0357 9H44.25V7L40.0357 7V9ZM48.4643 9H52.6786V7L48.4643 7V9ZM56.8929 9H59V7H56.8929V9Z" fill="white"/>
</svg>
